<?xml version="1.0" encoding="UTF-8" standalone="no"?>
<svg width="600" height="400" viewBox="0 0 600 280"
     xmlns="http://www.w3.org/2000/svg" version="1.1">

  <rect x="0" y="80" width="600" height="200" fill="#f5f5f5" stroke="none"/>

  <rect x="260" y="20" width="80" height="40" fill="#9ea7b8" stroke="#4a4f55" stroke-width="2"/>
  <text x="300" y="45" font-family="sans-serif" font-size="14" text-anchor="middle" fill="#ffffff">Vibrator</text>

  <rect x="295" y="60" width="10" height="20" fill="#4a4f55"/>

  <defs>
    <marker id="arr" markerWidth="10" markerHeight="7" refX="5" refY="3.5" orient="auto">
      <polygon points="0 0, 10 3.5, 0 7" fill="#c0392b"/>
    </marker>
  </defs>
  <line x1="300" y1="25" x2="300" y2="55" stroke="#c0392b" stroke-width="2" marker-start="url(#arr)" marker-end="url(#arr)"/>

  <ellipse cx="300" cy="100" rx="25" ry="15" fill="#ff9999" stroke="#c0392b" stroke-width="2"/>

  <path d="M285 83 q15 -5 30 0" fill="none" stroke="#c0392b" stroke-width="2"/>
  <path d="M285 117 q15 5 30 0" fill="none" stroke="#c0392b" stroke-width="2"/>

  <path d="M325 100 q15.0 -10 30 0 q15.0 8 30 0 q15.0 -6 30 0 q15.0 4 30 0 q15.0 -2 30 0 " fill="none" stroke="#27ae60" stroke-width="3"/>
  <path d="M275 100 q-15.0 -10 -30 0 q-15.0 8 -30 0 q-15.0 -6 -30 0 q-15.0 4 -30 0 q-15.0 -2 -30 0 " fill="none" stroke="#27ae60" stroke-width="3"/>

  <text x="300" y="130" font-family="sans-serif" font-size="12" text-anchor="middle" fill="#c0392b">Vibrating contact zone</text>
  <text x="425.0" y="130" font-family="sans-serif" font-size="12" text-anchor="middle" fill="#27ae60">Shear wave</text>
  <text x="175.0" y="130" font-family="sans-serif" font-size="12" text-anchor="middle" fill="#27ae60">Shear wave</text>
</svg>
