<?xml version="1.0" encoding="UTF-8" standalone="no"?>
<svg width="600" height="400" viewBox="0 0 600 280"
     xmlns="http://www.w3.org/2000/svg" version="1.1">

  <rect x="0" y="80" width="600" height="200" fill="#f5f5f5" stroke="none"/>

  <rect x="200" y="20" width="200" height="30" fill="#9ea7b8" stroke="#4a4f55" stroke-width="2"/>
  <text x="300" y="40" font-family="sans-serif" font-size="14" text-anchor="middle" fill="#ffffff">Transducer</text>

  <polygon points="200,50 300,200 400,50" fill="rgba(135,206,250,0.4)" stroke="none"/>
  <line x1="200" y1="50" x2="300" y2="200" stroke="#5dade2" stroke-width="2" />
  <line x1="400" y1="50" x2="300" y2="200" stroke="#5dade2" stroke-width="2" />

  <ellipse cx="300" cy="200" rx="25" ry="15" fill="#ff9999" stroke="#c0392b" stroke-width="2"/>

  <path d="M285 183 q15 -5 30 0" fill="none" stroke="#c0392b" stroke-width="2"/>
  <path d="M285 217 q15 5 30 0" fill="none" stroke="#c0392b" stroke-width="2"/>

  <path d="M325 200 q15.0 -10 30 0 q15.0 8 30 0 q15.0 -6 30 0 q15.0 4 30 0 q15.0 -2 30 0 " fill="none" stroke="#27ae60" stroke-width="3"/>
  <path d="M275 200 q-15.0 -10 -30 0 q-15.0 8 -30 0 q-15.0 -6 -30 0 q-15.0 4 -30 0 q-15.0 -2 -30 0 " fill="none" stroke="#27ae60" stroke-width="3"/>

  <text x="300" y="230" font-family="sans-serif" font-size="12" text-anchor="middle" fill="#c0392b">Vibrating focal zone</text>
  <text x="425.0" y="230" font-family="sans-serif" font-size="12" text-anchor="middle" fill="#27ae60">Shear wave</text>
  <text x="175.0" y="230" font-family="sans-serif" font-size="12" text-anchor="middle" fill="#27ae60">Shear wave</text>
</svg>
